# xmcd
#
# Track frame offsets: 
#        150
#        10956
#        27549
#        51731
#        64398
#        79645
#        100730
#        113435
#        136109
#        152996
#        175343
#        178320
#        212751
#        230473
#        246503
#
# Disc length: 3545 seconds
#
# Revision: 29
# Processed by: cddbd v1.5.2PL0 Copyright (c) Steve Scherf et al.
# Submitted via: ExactAudioCopy v1.0b3
#
DISCID=d50dd70f
DTITLE=Stevie Ray Vaughan and Double Trouble - Texas Flood
DYEAR=1983
DGENRE=Blues
TTITLE0=Love Struck Baby
TTITLE1=Pride And Joy
TTITLE2=Texas Flood
TTITLE3=Tell Me
TTITLE4=Testify
TTITLE5=Rude Mood
TTITLE6=Mary Had A Little Lamb
TTITLE7=Dirty Pool
TTITLE8=I'm Cryin'
TTITLE9=Lenny
TTITLE10=SRV Speaks
TTITLE11=Tin Pan Alley (Aka Roughest Place In Town)
TTITLE12=Testify (Live)
TTITLE13=Mary Had A Little Lamb (Live)
TTITLE14=Wham! (Live)
EXTD=(1999 Expanded Remaster)
EXTT0=
EXTT1=
EXTT2=
EXTT3=
EXTT4=
EXTT5=
EXTT6=
EXTT7=
EXTT8=
EXTT9=
EXTT10=
EXTT11=
EXTT12=
EXTT13=
EXTT14=
PLAYORDER=
